<svg version="1.1" preserveAspectRatio="none" xmlns="http://www.w3.org/2000/svg" width="500" height="500" viewBox="0 0 500 500"><rect width="100%" height="100%" fill="#EFEFEF" fill-opacity="1"/><svg viewBox="152.4964 607.1687 399.7394 165" width="333" height="137.4520500105819" x="83.5px" y="181.274px" xmlns="http://www.w3.org/2000/svg" xmlns:xlink="http://www.w3.org/1999/xlink" preserveAspectRatio="none"><defs></defs><style>.background {fill:#EFEFEF;fill-opacity:1;}.icon1 {fill:#141414;fill-opacity:1;}.icon3-str {stroke:#6B6B6B;stroke-opacity:1;}.shapeStroke-str {stroke:#828282;stroke-opacity:1;}.text {fill:#141414;fill-opacity:1;}</style><g opacity="1" transform="rotate(0 152.4964 607.1687)">
<svg width="399.7394" height="120" x="152.4964" y="607.1687" version="1.1" preserveAspectRatio="none" viewBox="0 0 399.7394 120">
  <rect x="0" y="0" width="399.7394" height="120" class="icon1 shapeStroke-str" style="stroke-width:0;" rx="28px" ry="28px" />
</svg>
</g><g opacity="1" transform="rotate(0 312.4605 751.1687)">
<svg width="79.8113" height="21" x="312.4605" y="751.1687" version="1.1" preserveAspectRatio="none" viewBox="0.44 -33.16 127.24000000000001 33.48">
  <g transform="matrix(1 0 0 1 0 0)" class="text"><path id="id-6izo4zJp5" d="M4.52 0L4.52-28L16.32-28Q20.76-28 24.20-26.24Q27.64-24.48 29.54-21.30Q31.44-18.12 31.44-14L31.44-14Q31.44-9.88 29.54-6.70Q27.64-3.52 24.20-1.76Q20.76 0 16.32 0L16.32 0L4.52 0ZM8.52-3.48L16.08-3.48Q19.48-3.48 22.06-4.80Q24.64-6.12 26.04-8.50Q27.44-10.88 27.44-14L27.44-14Q27.44-17.12 26.04-19.50Q24.64-21.88 22.06-23.20Q19.48-24.52 16.08-24.52L16.08-24.52L8.52-24.52L8.52-3.48ZM0.44-12.68L0.44-15.84L16.44-15.84L16.44-12.68L0.44-12.68Z M47.68 0.24Q44.52 0.24 42-1.16Q39.48-2.56 38.06-5.02Q36.64-7.48 36.64-10.60L36.64-10.60Q36.64-13.72 38.06-16.18Q39.48-18.64 42-20.02Q44.52-21.40 47.68-21.40L47.68-21.40Q50.84-21.40 53.34-20.02Q55.84-18.64 57.26-16.18Q58.68-13.72 58.68-10.60L58.68-10.60Q58.68-7.48 57.26-5.02Q55.84-2.56 53.34-1.16Q50.84 0.24 47.68 0.24L47.68 0.24ZM47.68-3.12Q49.72-3.12 51.34-4.06Q52.96-5 53.88-6.70Q54.80-8.40 54.80-10.60L54.80-10.60Q54.80-12.80 53.88-14.50Q52.96-16.20 51.34-17.12Q49.72-18.04 47.68-18.04L47.68-18.04Q45.64-18.04 44.02-17.12Q42.40-16.20 41.46-14.50Q40.52-12.80 40.52-10.60L40.52-10.60Q40.52-8.40 41.46-6.70Q42.40-5 44.02-4.06Q45.64-3.12 47.68-3.12L47.68-3.12ZM54.80-24.28L51.28-24.28L47.64-26.52L44-24.28L40.48-24.28L45.84-28.28L49.44-28.28L54.80-24.28ZM54-27.80L48.08-32.32L52.44-32.32L57.12-27.80L54-27.80Z M91.04 0.32Q86.84 0.32 83.46-1.54Q80.08-3.40 78.16-6.66Q76.24-9.92 76.24-14L76.24-14Q76.24-18.08 78.16-21.34Q80.08-24.60 83.48-26.46Q86.88-28.32 91.08-28.32L91.08-28.32Q94.36-28.32 97.08-27.22Q99.80-26.12 101.72-23.96L101.72-23.96L99.12-21.44Q95.96-24.76 91.24-24.76L91.24-24.76Q88.12-24.76 85.60-23.36Q83.08-21.96 81.66-19.50Q80.24-17.04 80.24-14L80.24-14Q80.24-10.96 81.66-8.50Q83.08-6.04 85.60-4.64Q88.12-3.24 91.24-3.24L91.24-3.24Q95.92-3.24 99.12-6.60L99.12-6.60L101.72-4.08Q99.80-1.92 97.06-0.80Q94.32 0.32 91.04 0.32L91.04 0.32Z M116.68 0.24Q113.52 0.24 111-1.16Q108.48-2.56 107.06-5.02Q105.64-7.48 105.64-10.60L105.64-10.60Q105.64-13.72 107.06-16.18Q108.48-18.64 111-20.02Q113.52-21.40 116.68-21.40L116.68-21.40Q119.84-21.40 122.34-20.02Q124.84-18.64 126.26-16.18Q127.68-13.72 127.68-10.60L127.68-10.60Q127.68-7.48 126.26-5.02Q124.84-2.56 122.34-1.16Q119.84 0.24 116.68 0.24L116.68 0.24ZM116.68-3.12Q118.72-3.12 120.34-4.06Q121.96-5 122.88-6.70Q123.80-8.40 123.80-10.60L123.80-10.60Q123.80-12.80 122.88-14.50Q121.96-16.20 120.34-17.12Q118.72-18.04 116.68-18.04L116.68-18.04Q114.64-18.04 113.02-17.12Q111.40-16.20 110.46-14.50Q109.52-12.80 109.52-10.60L109.52-10.60Q109.52-8.40 110.46-6.70Q111.40-5 113.02-4.06Q114.64-3.12 116.68-3.12L116.68-3.12ZM123.80-24.28L120.28-24.28L116.64-26.52L113-24.28L109.48-24.28L114.84-28.28L118.44-28.28L123.80-24.28ZM122.48-27.08L121.44-28.24Q122.24-28.60 122.64-29.12Q123.04-29.64 123.04-30.16L123.04-30.16Q123.04-30.72 122.62-31.06Q122.20-31.40 121.52-31.40L121.52-31.40Q120.64-31.40 119.80-30.92L119.80-30.92L119.08-32.40Q120.28-33.16 121.84-33.16L121.84-33.16Q123.28-33.16 124.12-32.38Q124.96-31.60 124.96-30.36L124.96-30.36Q124.96-29.28 124.28-28.42Q123.60-27.56 122.48-27.08L122.48-27.08Z"/></g>
</svg>
</g><g opacity="1" transform="rotate(0 167.4964 617.1687)">
<svg width="369.7394" height="100" x="167.4964" y="617.1687" version="1.1" preserveAspectRatio="none" viewBox="2.9883 -28.0078 103.55470000000001 28.0078">
  <g transform="matrix(1 0 0 1 0 0)" class="background"><path id="id-D6z1nYkh4" d="M8.07-28.01L8.07-16.56L25.90-16.56L25.90-28.01L30.98-28.01L30.98 0L25.90 0L25.90-11.45L8.07-11.45L8.07 0L2.99 0L2.99-28.01L8.07-28.01Z M42.03-28.01L42.03 0L36.95 0L36.95-28.01L42.03-28.01Z M74.88-8.24L74.88-8.24Q74.88-6.74 74.50-5.54Q74.12-4.34 73.50-3.42Q72.87-2.50 72.03-1.86Q71.19-1.21 70.29-0.80Q69.39-0.39 68.47-0.20Q67.54 0 66.72 0L66.72 0L47.13 0L47.13-5.08L66.72-5.08Q68.18-5.08 68.99-5.94Q69.80-6.80 69.80-8.24L69.80-8.24Q69.80-8.95 69.59-9.53Q69.38-10.12 68.97-10.55Q68.57-10.98 68.00-11.21Q67.42-11.45 66.72-11.45L66.72-11.45L55.04-11.45Q53.81-11.45 52.38-11.88Q50.96-12.32 49.74-13.30Q48.52-14.28 47.71-15.86Q46.89-17.44 46.89-19.73L46.89-19.73Q46.89-22.01 47.71-23.58Q48.52-25.16 49.74-26.14Q50.96-27.13 52.38-27.57Q53.81-28.01 55.04-28.01L55.04-28.01L72.32-28.01L72.32-22.93L55.04-22.93Q53.59-22.93 52.78-22.05Q51.97-21.17 51.97-19.73L51.97-19.73Q51.97-18.26 52.78-17.41Q53.59-16.56 55.04-16.56L55.04-16.56L66.72-16.56L66.76-16.56Q67.58-16.54 68.50-16.34Q69.41-16.13 70.32-15.70Q71.23-15.27 72.05-14.62Q72.87-13.96 73.51-13.05Q74.14-12.13 74.51-10.94Q74.88-9.75 74.88-8.24Z M106.54-28.01L106.54-2.56Q106.54-2.01 106.35-1.54Q106.15-1.07 105.80-0.73Q105.45-0.39 104.98-0.20Q104.51 0 103.98 0L103.98 0L92.54 0Q90.92 0 89.26-0.35Q87.60-0.70 86.04-1.44Q84.49-2.17 83.13-3.30Q81.76-4.43 80.73-5.99Q79.71-7.54 79.12-9.54Q78.54-11.54 78.54-14.00L78.54-14.00L78.54-28.01L83.61-28.01L83.61-14.00Q83.61-11.86 84.21-10.37Q84.80-8.89 85.72-7.89Q86.64-6.89 87.73-6.33Q88.83-5.76 89.81-5.49Q90.80-5.21 91.55-5.15Q92.30-5.08 92.54-5.08L92.54-5.08L101.46-5.08L101.46-28.01L106.54-28.01Z"/></g>
</svg>
</g></svg></svg>